<?xml version="1.0" encoding="UTF-8" standalone="no"?>
<svg
   xmlns:dc="http://purl.org/dc/elements/1.1/"
   xmlns:cc="http://creativecommons.org/ns#"
   xmlns:rdf="http://www.w3.org/1999/02/22-rdf-syntax-ns#"
   xmlns:svg="http://www.w3.org/2000/svg"
   xmlns="http://www.w3.org/2000/svg"
   viewBox="0 0 724 738.66669"
   height="738.66669"
   width="724"
   xml:space="preserve"
   id="svg2"
   version="1.1"><metadata
     id="metadata8"><rdf:RDF><cc:Work
         rdf:about=""><dc:format>image/svg+xml</dc:format><dc:type
           rdf:resource="http://purl.org/dc/dcmitype/StillImage" /></cc:Work></rdf:RDF></metadata><defs
     id="defs6" /><g
     transform="matrix(1.3333333,0,0,-1.3333333,0,738.66667)"
     id="g10"><g
       transform="scale(0.1)"
       id="g12"><path
         id="path14"
         style="fill:#2d7bc8;fill-opacity:1;fill-rule:nonzero;stroke:none"
         d="m 61.9688,948.551 h 33.457 v 52.919 h 20.5432 v -52.919 h 33.457 v 128.499 h -33.457 v -47.16 H 95.4258 v 47.16 h -33.457 z m 120.4372,0 h 33.457 v 100.079 h 25.203 v 28.42 h -83.859 v -28.42 h 25.199 z m 65.059,0 h 31.297 l 0.363,95.759 17.824,-95.759 h 24.129 l 18.188,95.759 v -95.759 h 31.297 v 128.499 h -47.864 l -13.867,-76.12 -13.504,76.12 h -47.863 z m 137.738,0 h 74.68 v 27.336 H 418.66 V 1077.05 H 385.203 Z M 527.117,1152.54 V 837.973 H 841.621 V 0.800781 H 5.27734 V 1152.54 Z M 61.9688,681.281 V 57.4961 H 784.926 V 681.281 Z M 349.336,464.621 c -8.531,-24.875 -13.766,-51.441 -15.223,-79.23 h 73.391 v 79.23 z m 13.273,32.078 h 44.895 v 63.063 c -17.676,-17.617 -32.961,-38.961 -44.895,-63.063 z m -35.023,0 c 9.449,21.864 21.555,42.426 35.398,60.531 -36.132,-11.39 -67.449,-33.488 -90.336,-60.531 z m 268.641,-32.078 -65.122,-0.066 c 7.575,-24.91 12.258,-51.5 13.567,-79.164 h 75.391 c -2.293,28.562 -10.672,55.402 -23.836,79.23 z m -83.446,-79.23 c -1.453,27.793 -6.687,54.355 -15.218,79.23 h -58.172 v -79.23 z m -28.496,111.308 c -11.933,24.102 -27.215,45.446 -44.894,63.063 v -63.063 z m 35.024,0 h 54.937 c -22.887,27.043 -54.199,49.141 -90.332,60.531 13.844,-18.105 25.949,-38.664 35.395,-60.531 z m -268.641,-222.547 65.121,0.067 c -7.574,24.91 -12.258,51.5 -13.566,79.164 h -75.387 c 2.293,-28.563 10.668,-55.403 23.832,-79.231 z m 83.445,79.231 c 1.457,-27.789 6.692,-54.356 15.223,-79.231 h 58.168 v 79.231 z m 28.496,-111.309 c 11.934,-24.101 27.219,-45.449 44.895,-63.062 v 63.062 z m -35.023,0 h -54.938 c 22.887,-27.043 54.204,-49.14 90.336,-60.527 -13.843,18.101 -25.949,38.66 -35.398,60.527 z m 203.519,32.145 65.122,-0.067 c 13.164,23.828 21.543,50.668 23.836,79.231 h -75.391 c -1.309,-27.664 -5.992,-54.254 -13.567,-79.164 z m -33.542,-0.067 c 8.531,24.879 13.765,51.442 15.218,79.231 h -73.39 v -79.231 z m -13.278,-32.078 h -44.894 v -63.062 c 17.679,17.613 32.964,38.961 44.894,63.062 z m 35.024,0 c -9.446,-21.867 -21.551,-42.426 -35.395,-60.527 36.129,11.387 67.445,33.484 90.332,60.527 z m -203.52,222.481 -65.121,0.066 c -13.164,-23.828 -21.539,-50.668 -23.832,-79.23 h 75.387 c 1.308,27.664 5.992,54.254 13.566,79.164 z m 107.66,-324.258 c -126.531,0 -229.105,102.566 -229.105,229.09 0,126.523 102.574,229.093 229.105,229.093 126.528,0 229.106,-102.57 229.106,-229.093 0,-126.524 -102.578,-229.09 -229.106,-229.09 z M 563.508,1152.54 841.621,874.422 H 563.508 Z" /><path
         id="path16"
         style="fill:#1c4f9c;fill-opacity:1;fill-rule:nonzero;stroke:none"
         d="m 4731.69,1077.05 -0.62,-28.42 v 28.42 h -83.24 v -28.42 h 25.2 V 948.551 h 33.46 v 100.079 h 24.58 25.2 V 948.551 h 33.46 v 100.079 h 25.2 v 28.42 z m 90.89,-128.499 h 33.46 v 52.919 H 4896 v 26.26 h -39.96 v 21.98 h 42.66 v 27.34 h -76.12 z m 290.4,203.989 V 837.973 h 314.5 V 0.800781 H 4591.14 V 1152.54 Z M 4647.83,681.281 V 57.4961 h 722.96 V 681.281 Z M 5137.1,202.75 c -22.38,0 -40.39,6.41 -54.01,19.227 -13.64,12.824 -20.45,29.683 -20.45,50.582 0,22.082 6.15,39.757 18.45,53.019 12.29,13.266 30.22,21.606 53.79,25.012 l 42,5.785 c 10.97,1.48 20.08,4 27.34,7.555 3.11,1.484 5.52,4.16 7.23,8.023 1.7,3.86 2.33,7.797 1.89,11.813 -0.89,6.832 -4.38,12.183 -10.45,16.047 -7.25,4.605 -17.69,6.91 -31.32,6.91 -12.13,0 -21.6,-2.977 -28.4,-8.93 -6.81,-5.953 -10.43,-14.359 -10.88,-25.219 h -61 c 1.33,28.305 10.94,49.492 28.84,63.571 17.9,14.074 44.16,21.113 78.78,21.113 30.05,0 53.77,-6.336 71.16,-19.012 17.39,-12.676 26.09,-29.98 26.09,-51.922 V 251.133 c 0,-10.824 0.88,-18.422 2.64,-22.793 1.76,-4.375 5.29,-7.82 10.57,-10.344 v -8.871 h -34.39 -34.39 c -2.78,10.105 -4.6,19.539 -5.47,28.754 -20.23,-23.274 -46.16,-35.129 -78.02,-35.129 z m 76.69,95.574 v 27.813 c -7.41,-4.153 -17.2,-7.485 -29.36,-10.004 l -23.57,-4.449 c -11.12,-2.075 -19.57,-5.895 -25.35,-11.454 -5.79,-5.562 -8.68,-12.57 -8.68,-21.027 0,-9.64 2.6,-17.207 7.78,-22.695 5.19,-5.485 12.46,-8.227 21.8,-8.227 20.46,0 36.77,7.192 48.93,21.574 2.37,2.817 4.37,6.969 6,12.458 1.63,5.488 2.45,10.824 2.45,16.011 z m -484.54,-89.199 115.6,326.898 h 79.22 l 115.6,-326.898 h -36.19 -36.2 l -22.08,66.473 h -124.07 l -21.37,-66.473 h -35.15 z m 154.29,254.18 -43.39,-131.25 h 86.73 z m 265.83,689.235 278.11,-278.118 h -278.11 v 278.118" /><path
         id="path18"
         style="fill:#4fbe37;fill-opacity:1;fill-rule:nonzero;stroke:none"
         d="m 3556.46,1030.8 h 32.38 v 8.11 c 0.16,12.55 -3,22.44 -9.45,29.64 -6.46,7.2 -17.16,10.88 -32.12,11.02 -17.11,0.29 -29.1,-4.7 -35.97,-14.96 -6.87,-10.26 -10.18,-27.53 -9.92,-51.81 -0.13,-15.902 1.05,-28.769 3.54,-38.597 2.49,-9.828 7.06,-16.996 13.73,-21.504 6.67,-4.511 16.21,-6.734 28.62,-6.672 7.27,-0.113 14.11,1.078 20.53,3.575 6.42,2.492 11.65,6.988 15.69,13.484 4.03,6.496 6.12,15.684 6.25,27.566 v 9.548 h -32.38 c 0.1,-11.954 -0.55,-20.243 -1.94,-24.876 -1.38,-4.633 -4.1,-6.844 -8.15,-6.636 -3.38,-0.102 -5.88,1.14 -7.51,3.714 -1.63,2.575 -2.69,7.078 -3.18,13.516 -0.49,6.437 -0.71,15.392 -0.66,26.882 -0.05,11.48 0.17,20.44 0.66,26.88 0.49,6.43 1.55,10.94 3.18,13.52 1.63,2.57 4.13,3.81 7.51,3.71 3.22,0.13 5.56,-1.2 7.03,-3.98 1.46,-2.79 2.18,-7.76 2.16,-14.93 z m 126.79,9.18 c 0.09,13.7 -3.19,23.74 -9.84,30.12 -6.66,6.38 -17.23,9.54 -31.72,9.47 -14.12,-0.05 -24.67,-3.5 -31.65,-10.35 -6.99,-6.84 -10.47,-16.77 -10.46,-29.77 0.27,-11.15 3.01,-19.4 8.21,-24.77 5.2,-5.37 11.23,-9.36 18.07,-11.97 6.84,-2.6 12.86,-5.331 18.07,-8.183 5.2,-2.847 7.93,-7.32 8.21,-13.418 -0.03,-3.589 -0.97,-6.535 -2.84,-8.843 -1.87,-2.309 -4.53,-3.5 -7.97,-3.578 -3.3,-0.067 -5.94,1.054 -7.93,3.351 -1.99,2.301 -3.01,6.164 -3.06,11.59 v 3.062 h -32.38 v -4.5 c 0.07,-13.16 3.8,-22.515 11.2,-28.066 7.4,-5.555 18.06,-8.254 31.98,-8.098 14.82,-0.058 26.1,3.118 33.84,9.536 7.75,6.414 11.65,16.433 11.7,30.046 -0.29,11.496 -3.14,20.041 -8.55,25.621 -5.42,5.59 -11.69,9.74 -18.81,12.46 -7.13,2.72 -13.4,5.52 -18.81,8.41 -5.42,2.88 -8.27,7.37 -8.55,13.47 -0.02,2.99 0.82,5.6 2.52,7.83 1.7,2.23 4.34,3.4 7.93,3.51 3.23,-0.11 5.64,-1.47 7.2,-4.1 1.57,-2.62 2.35,-5.88 2.35,-9.76 v -3.07 z m 32.7,-91.429 h 43.19 l 27.72,128.499 h -35.64 l -13.85,-96.843 -13.5,96.843 h -35.63 z m 250.56,203.989 V 837.973 h 314.51 V 0.800781 H 3444.67 V 1152.54 Z M 3501.37,681.281 V 57.4961 h 722.95 V 681.281 Z m 235.86,-120.746 v -55.18 h 112.32 v 55.18 z m 251.23,-55.18 v 55.18 h -112.31 v -55.18 z m 0,-81.777 v 55.18 h -112.31 v -55.18 z m 0,-81.781 v 55.18 h -112.31 v -55.18 z m 0,-81.777 v 55.179 H 3876.15 V 260.02 Z m 0,-81.782 v 55.18 h -112.31 v -55.18 z m 138.91,327.117 v 55.18 h -112.31 v -55.18 z m 0,-81.777 v 55.18 h -112.31 v -55.18 z m 0,-81.781 v 55.18 h -112.31 v -55.18 z m 0,-81.777 v 55.179 H 4015.06 V 260.02 Z m 0,-81.782 v 55.18 h -112.31 v -55.18 z m -416.74,327.117 v 55.18 h -112.32 v -55.18 z m 0,-81.777 v 55.18 h -112.32 v -55.18 z m 0,-81.781 v 55.18 h -112.32 v -55.18 z m 0,-81.777 v 55.179 H 3598.31 V 260.02 Z m 138.92,-81.782 v 55.18 h -112.32 v -55.18 z m -138.92,55.18 h -112.32 v -55.18 h 112.32 z m 26.6,81.781 V 260.02 h 112.32 v 55.179 z m 0,81.778 v -55.18 h 112.32 v 55.18 z m 0,81.781 v -55.18 h 112.32 v 55.18 z m 416.74,108.379 V 151.641 l -582.25,-0.004 v 435.5 z M 4002.9,1152.54 4281.02,874.422 H 4002.9 Z" /><path
         id="path20"
         style="fill:#fbbf16;fill-opacity:1;fill-rule:nonzero;stroke:none"
         d="m 1208.43,948.551 h 77.74 v 27.336 h -44.28 v 25.583 h 39.96 v 26.26 h -39.96 v 21.98 h 42.66 v 27.34 h -76.12 z m 88.74,0 h 31.3 v 95.759 l 18.19,-95.759 h 24.13 l 17.82,95.759 0.36,-95.759 h 31.3 v 128.499 h -47.86 l -13.51,-76.12 -13.86,76.12 h -47.87 z m 137.74,0 h 74.68 v 27.336 h -41.22 v 101.163 h -33.46 z m 238.67,203.989 V 837.973 h 314.51 V 0.800781 H 1151.74 V 1152.54 Z M 1208.43,681.281 V 57.4961 h 722.96 V 681.281 Z m 292.14,-324.73 35.55,-35.238 c 9.72,-9.727 20.81,-15.536 33.79,-15.536 12.99,0 24.08,5.809 33.8,15.536 l 35.55,35.238 154.32,-154.324 h -447.33 z m 89.24,-25.172 c -4.72,-4.715 -10.24,-8.504 -19.9,-8.504 -9.65,0 -15.18,3.789 -19.89,8.504 l -204.54,205.168 h 448.86 z m -101.08,37.078 -153.54,-153.863 v 307.094 z m 162.37,0 153.54,153.231 V 214.594 Z m 58.87,784.083 278.12,-278.118 h -278.12 z" /><path
         id="path22"
         style="fill:#c4122e;fill-opacity:1;fill-rule:nonzero;stroke:none"
         d="m 2354.9,948.551 h 33.46 v 51.479 h 8.83 c 4,0.15 6.85,-1.092 8.53,-3.717 1.69,-2.622 2.51,-7.504 2.46,-14.653 v -8.644 c -0.07,-2.957 0.07,-6.856 0.4,-11.703 0.34,-4.844 1.29,-9.098 2.84,-12.762 h 35.62 v 1.773 c -1.05,0.551 -1.84,1.164 -2.37,1.848 -0.53,0.683 -1,1.387 -1.41,2.117 -0.78,1.43 -1.25,3.883 -1.42,7.359 -0.17,3.477 -0.24,6.969 -0.2,10.469 v 10.985 c 0.13,8.593 -1.35,15.351 -4.46,20.278 -3.1,4.92 -8.63,7.76 -16.59,8.52 7.61,1.58 13.18,4.84 16.71,10.12 3.53,5.28 5.28,12.23 5.24,20.84 0.12,10.09 -2.56,18.26 -8.05,24.52 -5.5,6.26 -14.57,9.48 -27.21,9.67 h -52.38 z m 93.26,0 h 35.63 l 3.42,22.5 h 26.63 l 3.42,-22.5 h 35.63 l -31.31,128.499 h -42.11 z m 139.73,39.59 -10.44,88.909 h -32.39 l 21.96,-128.499 h 36.71 l 11.16,86.379 11.52,-86.379 h 36.71 l 21.96,128.499 h -32.4 l -9,-88.909 -13.49,88.909 h -30.24 z m 232.16,164.399 V 837.973 h 314.5 V 0.800781 H 2298.21 V 1152.54 Z M 2354.9,681.281 V 57.4961 h 722.96 V 681.281 Z m 33.46,371.669 h 6.48 c 5.01,0.03 8.64,-1.16 10.91,-3.56 2.26,-2.4 3.37,-6.2 3.33,-11.39 0.01,-4.66 -1.14,-8.36 -3.45,-11.1 -2.31,-2.75 -5.84,-4.15 -10.61,-4.21 h -6.66 z m 121.53,-56.723 h -18.72 l 9.18,54.563 z M 2932.4,369.391 c 0,-119.368 -96.64,-216.016 -216.02,-216.016 -119.12,-0.004 -216.02,96.898 -216.02,216.012 0,119.113 96.9,216.011 216.02,216.015 119.37,0 216.02,-96.636 216.02,-216.011 z m -59.93,86.375 c -25.65,44.742 -63.67,74.558 -114.81,87.187 l -39.98,-118.117 z m -123.5,-79.864 -21.93,24.969 -32.6,-6.512 -10.65,-31.484 21.93,-24.973 32.6,6.516 z m -29.34,171.883 -3.25,0.043 c -50.54,0 -94.98,-20.125 -129.65,-55.941 l 82.28,-93.653 z m -156.09,-86.437 c -16.86,-28.696 -25.61,-58.129 -25.61,-91.961 0,-17.973 2.54,-34.012 7.49,-51.035 l 122.29,24.437 z m -3.12,-178.313 c 25.75,-44.769 64.25,-74.59 114.69,-87.172 l 39.97,118.075 z m 152.71,-92.043 3.25,-0.047 c 50.54,0 94.98,20.125 129.65,55.942 l -82.28,93.652 z m 156.08,86.434 c 16.87,28.695 25.62,58.129 25.62,91.965 0,17.949 -2.53,34.015 -7.45,51.043 l -122.33,-24.45 z m -12.77,875.114 278.11,-278.118 h -278.11 z" /><path
         id="path24"
         style="fill:#ec008c;fill-opacity:1;fill-rule:nonzero;stroke:none"
         d="m 3556.46,2492.66 h 32.38 v 8.1 c 0.16,12.56 -3,22.44 -9.45,29.64 -6.46,7.21 -17.16,10.88 -32.12,11.02 -17.11,0.29 -29.1,-4.7 -35.97,-14.96 -6.87,-10.25 -10.18,-27.53 -9.92,-51.81 -0.13,-15.9 1.05,-28.76 3.54,-38.59 2.49,-9.83 7.06,-17 13.73,-21.51 6.67,-4.51 16.21,-6.73 28.62,-6.67 7.27,-0.11 14.11,1.08 20.53,3.57 6.42,2.5 11.65,7 15.69,13.49 4.03,6.5 6.12,15.69 6.25,27.56 v 9.55 h -32.38 c 0.1,-11.95 -0.55,-20.24 -1.94,-24.87 -1.38,-4.63 -4.1,-6.84 -8.15,-6.64 -3.38,-0.1 -5.88,1.14 -7.51,3.71 -1.63,2.58 -2.69,7.09 -3.18,13.52 -0.49,6.44 -0.71,15.4 -0.66,26.88 -0.05,11.49 0.17,20.45 0.66,26.88 0.49,6.44 1.55,10.94 3.18,13.52 1.63,2.58 4.13,3.81 7.51,3.71 3.22,0.13 5.56,-1.2 7.03,-3.98 1.46,-2.78 2.18,-7.75 2.16,-14.92 z m 126.79,9.18 c 0.09,13.7 -3.19,23.73 -9.84,30.12 -6.66,6.38 -17.23,9.53 -31.72,9.46 -14.12,-0.05 -24.67,-3.5 -31.65,-10.34 -6.99,-6.85 -10.47,-16.77 -10.46,-29.78 0.27,-11.14 3.01,-19.39 8.21,-24.76 5.2,-5.38 11.23,-9.36 18.07,-11.97 6.84,-2.61 12.86,-5.34 18.07,-8.19 5.2,-2.85 7.93,-7.32 8.21,-13.42 -0.03,-3.58 -0.97,-6.53 -2.84,-8.84 -1.87,-2.31 -4.53,-3.5 -7.97,-3.58 -3.3,-0.06 -5.94,1.05 -7.93,3.35 -1.99,2.3 -3.01,6.17 -3.06,11.59 v 3.06 h -32.38 v -4.5 c 0.07,-13.15 3.8,-22.51 11.2,-28.06 7.4,-5.56 18.06,-8.25 31.98,-8.1 14.82,-0.06 26.1,3.12 33.84,9.53 7.75,6.42 11.65,16.44 11.7,30.05 -0.29,11.5 -3.14,20.04 -8.55,25.63 -5.42,5.59 -11.69,9.74 -18.81,12.46 -7.13,2.71 -13.4,5.51 -18.81,8.4 -5.42,2.89 -8.27,7.38 -8.55,13.47 -0.02,2.99 0.82,5.6 2.52,7.83 1.7,2.23 4.34,3.4 7.93,3.51 3.23,-0.1 5.64,-1.47 7.2,-4.09 1.57,-2.63 2.35,-5.88 2.35,-9.77 v -3.06 z m 96.77,0 c 0.09,13.7 -3.2,23.73 -9.86,30.12 -6.65,6.38 -17.23,9.53 -31.71,9.46 -14.12,-0.05 -24.67,-3.5 -31.65,-10.34 -6.99,-6.85 -10.47,-16.77 -10.46,-29.78 0.27,-11.14 3.01,-19.39 8.21,-24.76 5.2,-5.38 11.22,-9.36 18.07,-11.97 6.84,-2.61 12.86,-5.34 18.07,-8.19 5.2,-2.85 7.94,-7.32 8.21,-13.42 -0.02,-3.58 -0.97,-6.53 -2.84,-8.84 -1.87,-2.31 -4.53,-3.5 -7.97,-3.58 -3.3,-0.06 -5.94,1.05 -7.93,3.35 -1.99,2.3 -3.01,6.17 -3.07,11.59 v 3.06 h -32.37 v -4.5 c 0.07,-13.15 3.8,-22.51 11.2,-28.06 7.4,-5.56 18.06,-8.25 31.99,-8.1 14.81,-0.06 26.09,3.12 33.83,9.53 7.74,6.42 11.64,16.44 11.7,30.05 -0.29,11.5 -3.14,20.04 -8.56,25.63 -5.41,5.59 -11.68,9.74 -18.81,12.46 -7.12,2.71 -13.39,5.51 -18.8,8.4 -5.42,2.89 -8.27,7.38 -8.56,13.47 -0.01,2.99 0.83,5.6 2.53,7.83 1.69,2.23 4.34,3.4 7.92,3.51 3.24,-0.1 5.64,-1.47 7.22,-4.09 1.57,-2.63 2.35,-5.88 2.33,-9.77 v -3.06 z m 186.49,112.55 v -314.56 h 314.51 v -837.17 h -836.35 v 1151.73 z m -465.14,-471.26 v -623.78 h 722.95 v 623.78 z m 572.94,-460.36 h -90.44 v 32.21 h 48.43 v 232.53 h -48.06 v 32.2 h 90.07 z m -275.15,122.82 h -47.31 v 51.28 h 47.31 z m 87.33,0 h -47.31 v 51.28 h 47.31 z m 87.36,0 h -47.31 v 51.28 h 47.31 z m -232.03,-122.82 h -90.44 v 296.94 h 90.07 v -32.2 h -48.07 v -232.53 h 48.44 z m 261.08,931.62 278.12,-278.12 H 4002.9 Z" /><path
         id="path26"
         style="fill:#a7a5a6;fill-opacity:1;fill-rule:nonzero;stroke:none"
         d="m 2354.9,2410.4 h 79.36 v 27.34 h -41.03 l 41.03,77.06 v 24.1 h -76.66 v -27.34 h 37.61 l -40.31,-77.06 z m 89.68,0 h 33.46 v 128.5 h -33.46 z m 46.9,0 h 33.46 v 48.96 h 11.71 c 13.64,0.02 24.06,3.4 31.24,10.12 7.19,6.73 10.81,16.67 10.86,29.83 0.06,11.49 -2.93,20.91 -8.94,28.23 -6.02,7.33 -15.39,11.12 -28.11,11.36 h -50.22 z m 328.57,203.99 v -314.56 h 314.5 V 1462.66 H 2298.21 V 2614.39 Z M 2354.9,2143.13 v -623.78 h 722.96 v 623.78 z m 170.04,371.67 h 6.3 c 4.25,0.01 7.47,-1.27 9.67,-3.85 2.2,-2.57 3.3,-6.52 3.31,-11.82 -0.01,-5.38 -1.11,-9.34 -3.31,-11.89 -2.2,-2.54 -5.42,-3.8 -9.67,-3.78 h -6.3 z m 201.85,-871.34 c -0.7,2.76 -2.38,5.29 -4.94,7 -5.46,3.65 -12.84,2.19 -16.48,-3.26 -1.18,-1.77 -1.81,-3.72 -1.97,-5.68 l -6.13,-33.29 c -0.83,-6.96 2.18,-14.14 8.43,-18.32 8.82,-5.9 20.77,-3.52 26.68,5.32 2.83,4.24 3.76,9.22 2.97,13.88 z m -33.63,29.47 c 0.54,2.82 1.63,5.57 3.32,8.11 6.77,10.13 20.48,12.85 30.62,6.07 3.79,-2.53 6.55,-6.04 8.15,-9.98 l 19.91,-66.68 c 1.04,-8.9 -0.95,-18.2 -6.31,-26.23 -11.98,-17.93 -36.23,-22.75 -54.15,-10.77 -13.46,8.99 -19.53,24.88 -16.66,39.82 z m -41.68,302.56 h 64.9 v 30.04 h -64.9 v 30.02 h 64.9 v 30.04 h -64.9 v 30.03 h 64.9 v -30.03 h 64.9 v -30.04 h -64.9 v -30.02 h 64.9 v -30.04 h -64.9 v -30.03 h 64.9 v -30.03 h -64.9 v -30.03 h 64.9 v -30.03 h -64.9 v -30.03 h 64.9 v -30.04 h -64.9 v -30.03 h 64.9 v -30.03 h -64.9 v -30.03 h -64.9 v 30.03 h 64.9 v 30.03 h -64.9 v 30.03 h 64.9 v 30.04 h -64.9 v 30.03 h 64.9 v 30.03 h -64.9 v 30.03 h 64.9 v 30.03 h -64.9 z m 204.96,638.9 278.11,-278.12 h -278.11 z" /><path
         id="path28"
         style="fill:#f68313;fill-opacity:1;fill-rule:nonzero;stroke:none"
         d="m 1208.43,2410.4 h 33.46 v 48.96 h 11.72 c 13.64,0.02 24.05,3.4 31.24,10.12 7.19,6.73 10.81,16.67 10.86,29.83 0.06,11.49 -2.93,20.91 -8.95,28.23 -6.02,7.33 -15.39,11.12 -28.11,11.36 h -50.22 z m 96.77,0 h 33.45 v 48.96 h 11.71 c 13.65,0.02 24.06,3.4 31.25,10.12 7.18,6.73 10.8,16.67 10.86,29.83 0.05,11.49 -2.93,20.91 -8.95,28.23 -6.02,7.33 -15.39,11.12 -28.11,11.36 h -50.21 z m 114.93,0 h 33.46 v 100.08 h 25.2 v 28.42 h -83.86 v -28.42 h 25.2 z m 253.45,203.99 v -314.56 h 314.51 v -837.17 h -836.35 v 1151.73 z m -465.15,-471.26 v -623.78 h 722.96 v 623.78 z m 33.46,371.67 h 6.31 c 4.25,0.01 7.47,-1.27 9.66,-3.85 2.2,-2.57 3.3,-6.52 3.32,-11.82 -0.02,-5.38 -1.12,-9.34 -3.32,-11.89 -2.19,-2.54 -5.41,-3.8 -9.66,-3.78 h -6.31 z m 96.76,0 h 6.31 c 4.24,0.01 7.47,-1.27 9.66,-3.85 2.2,-2.57 3.3,-6.52 3.31,-11.82 -0.01,-5.38 -1.11,-9.34 -3.31,-11.89 -2.19,-2.54 -5.42,-3.8 -9.66,-3.78 h -6.31 z m 244.58,-696.87 h 203.56 c 0,-112.43 -91.14,-203.56 -203.56,-203.56 z m -230.19,26.62 c 0,112.43 91.14,203.57 203.56,203.57 112.42,0 203.56,-91.14 203.56,-203.57 H 1556.6 V 1641 c -112.42,0 -203.56,91.13 -203.56,203.55 z m 356.93,769.84 278.12,-278.12 h -278.12 z" /><path
         id="path30"
         style="fill:#c4122e;fill-opacity:1;fill-rule:nonzero;stroke:none"
         d="m 4647.83,2410.4 h 33.46 v 51.48 h 8.83 c 4,0.15 6.85,-1.09 8.53,-3.71 1.69,-2.62 2.51,-7.51 2.46,-14.65 v -8.65 c -0.07,-2.96 0.07,-6.86 0.41,-11.7 0.33,-4.85 1.28,-9.1 2.83,-12.77 h 35.61 v 1.78 c -1.04,0.55 -1.83,1.16 -2.35,1.85 -0.54,0.68 -1.01,1.38 -1.42,2.11 -0.78,1.43 -1.25,3.88 -1.42,7.36 -0.17,3.48 -0.24,6.97 -0.2,10.47 v 10.98 c 0.13,8.6 -1.35,15.36 -4.45,20.28 -3.11,4.92 -8.64,7.76 -16.6,8.88 7.61,1.23 13.17,4.48 16.71,9.76 3.53,5.28 5.28,12.23 5.24,20.84 0.12,10.09 -2.56,18.26 -8.05,24.52 -5.5,6.26 -14.57,9.48 -27.21,9.67 h -52.38 z m 93.26,0 h 35.63 l 3.42,22.5 h 26.63 l 3.43,-22.5 h 35.62 l -31.31,128.5 h -42.11 z m 110.4,0 h 33.46 v 51.48 h 8.82 c 4.01,0.15 6.86,-1.09 8.54,-3.71 1.69,-2.62 2.51,-7.51 2.46,-14.65 v -8.65 c -0.07,-2.96 0.07,-6.86 0.4,-11.7 0.34,-4.85 1.29,-9.1 2.84,-12.77 h 35.62 v 1.78 c -1.05,0.55 -1.84,1.16 -2.37,1.85 -0.53,0.68 -1,1.38 -1.41,2.11 -0.78,1.43 -1.25,3.88 -1.42,7.36 -0.17,3.48 -0.24,6.97 -0.2,10.47 v 10.98 c 0.13,8.6 -1.35,15.36 -4.46,20.28 -3.1,4.92 -8.63,7.76 -16.59,8.52 7.61,1.59 13.17,4.84 16.71,10.12 3.53,5.28 5.27,12.23 5.24,20.84 0.12,10.09 -2.56,18.26 -8.06,24.52 -5.49,6.26 -14.56,9.48 -27.2,9.67 h -52.38 z m 261.49,203.99 v -314.56 h 314.5 v -837.17 h -836.34 v 1151.73 z m -465.15,-471.26 v -623.78 h 722.96 v 623.78 z m 33.46,371.67 h 6.48 c 5.01,0.03 8.65,-1.15 10.91,-3.55 2.26,-2.41 3.37,-6.2 3.33,-11.4 0.01,-4.65 -1.14,-8.36 -3.45,-11.1 -2.31,-2.74 -5.84,-4.14 -10.61,-4.21 h -6.66 z m 121.53,-56.72 h -18.72 l 9.54,54.56 z m 82.13,56.72 h 6.48 c 5.01,0.03 8.64,-1.15 10.91,-3.55 2.25,-2.41 3.37,-6.2 3.33,-11.4 0.01,-4.65 -1.14,-8.36 -3.45,-11.1 -2.31,-2.74 -5.84,-4.14 -10.61,-4.21 h -6.66 z m -54.37,-679.4 h 358.93 l -0.13,-4.16 0.13,-4.16 h -358.93 v -9.72 h 360.35 c 0.65,-2.85 1.5,-5.63 2.53,-8.32 h -361.58 c 2.9,-7.71 10.35,-13.2 19.07,-13.2 h 359.29 v -22.2 h -359.29 c -23.52,0 -42.57,19.06 -42.57,42.57 v 30.06 c 0,23.51 19.05,42.57 42.57,42.57 h 359.29 v -22.2 h -359.29 c -8.72,0 -16.17,-5.49 -19.07,-13.19 h 361.58 c -1.03,-2.7 -1.88,-5.48 -2.53,-8.33 h -360.35 v -2.52 -6.06 z m 0,133.86 h 358.93 l -0.13,-4.17 0.13,-4.16 h -358.93 v -9.71 h 360.35 c 0.65,-2.86 1.5,-5.64 2.53,-8.33 h -361.58 c 2.9,-7.71 10.35,-13.19 19.07,-13.19 h 359.29 v -22.2 h -359.29 c -23.52,0 -42.57,19.05 -42.57,42.57 v 30.06 c 0,23.51 19.05,42.57 42.57,42.57 h 359.29 v -22.21 h -359.29 c -8.72,0 -16.17,-5.48 -19.07,-13.19 h 361.58 c -1.03,-2.69 -1.88,-5.47 -2.53,-8.33 h -360.35 v -2.52 -6.06 z m 0,-267.71 h 358.93 l -0.13,-4.16 0.13,-4.16 h -358.93 v -9.72 h 360.35 c 0.65,-2.85 1.5,-5.63 2.53,-8.33 h -361.58 c 2.9,-7.7 10.35,-13.19 19.07,-13.19 h 359.29 v -22.2 h -359.29 c -23.52,0 -42.57,19.06 -42.57,42.57 v 30.06 c 0,23.51 19.05,42.57 42.57,42.57 h 359.29 v -22.2 h -359.29 c -8.72,0 -16.17,-5.49 -19.07,-13.2 h 361.58 c -1.03,-2.69 -1.88,-5.47 -2.53,-8.32 h -360.35 v -2.52 -6.07 z m 318.79,912.84 278.11,-278.12 h -278.11 z" /><path
         id="path32"
         style="fill:#ec008c;fill-opacity:1;fill-rule:nonzero;stroke:none"
         d="m 61.9688,2410.4 h 77.7382 v 27.34 H 95.4258 v 25.58 h 39.9612 v 26.26 H 95.4258 v 21.98 h 42.6602 v 27.34 H 61.9688 Z m 88.7382,0 h 33.461 v 48.96 h 11.711 c 13.644,0.02 24.059,3.4 31.246,10.12 7.184,6.73 10.805,16.67 10.863,29.83 0.051,11.49 -2.933,20.91 -8.953,28.23 -6.015,7.33 -15.387,11.12 -28.109,11.36 h -50.219 z m 179.359,91.44 c 0.09,13.7 -3.191,23.73 -9.851,30.12 -6.656,6.38 -17.231,9.53 -31.719,9.46 -14.117,-0.05 -24.668,-3.5 -31.652,-10.34 -6.981,-6.85 -10.469,-16.77 -10.457,-29.78 0.277,-11.14 3.011,-19.39 8.215,-24.76 5.199,-5.38 11.222,-9.36 18.066,-11.97 6.844,-2.61 12.867,-5.34 18.066,-8.19 5.204,-2.85 7.942,-7.32 8.215,-13.42 -0.023,-3.58 -0.969,-6.53 -2.84,-8.84 -1.867,-2.31 -4.527,-3.5 -7.972,-3.58 -3.297,-0.06 -5.938,1.05 -7.93,3.35 -1.988,2.3 -3.008,6.17 -3.062,11.59 v 3.06 H 244.77 v -4.5 c 0.066,-13.15 3.8,-22.51 11.199,-28.06 7.398,-5.56 18.062,-8.25 31.988,-8.1 14.813,-0.06 26.09,3.12 33.832,9.53 7.746,6.42 11.645,16.44 11.695,30.05 -0.285,11.5 -3.132,20.04 -8.546,25.63 -5.418,5.59 -11.688,9.74 -18.813,12.46 -7.125,2.71 -13.395,5.51 -18.809,8.4 -5.418,2.89 -8.265,7.38 -8.55,13.47 -0.016,2.99 0.828,5.6 2.523,7.83 1.695,2.23 4.34,3.4 7.93,3.51 3.234,-0.1 5.636,-1.47 7.207,-4.09 1.57,-2.63 2.347,-5.88 2.344,-9.77 v -3.06 z m 197.051,112.55 V 2299.83 H 841.621 V 1462.66 H 5.27734 V 2614.39 Z M 61.9688,2143.13 V 1519.35 H 784.926 v 623.78 z M 184.168,2514.8 h 6.305 c 4.246,0.01 7.468,-1.27 9.664,-3.85 2.195,-2.57 3.301,-6.52 3.312,-11.82 -0.011,-5.38 -1.117,-9.34 -3.312,-11.89 -2.196,-2.54 -5.418,-3.8 -9.664,-3.78 h -6.305 z m 21.094,-520.16 h 68.426 v -28.32 h 146.968 v 28.32 h 68.43 l -0.004,-28.32 h 146.969 l 0.004,28.32 h 68.422 v -68.43 h -68.422 l -0.004,28.32 H 489.082 l 0.004,-28.32 h -68.43 v 27.67 C 297.297,1938.45 199.52,1840.72 184.031,1717.38 h 26.817 l 0.004,-68.43 h -68.43 l -0.004,68.43 h 29.73 c 13.469,111.98 91.93,203.98 196.567,237.15 h -95.027 v -28.32 h -68.426 z m 230.652,-34.21 c 0,-10.48 8.484,-18.96 18.957,-18.96 10.469,-0.01 18.957,8.48 18.957,18.96 0,10.46 -8.488,18.95 -18.957,18.95 -10.473,0 -18.957,-8.49 -18.957,-18.95 z m 18.617,-62.05 76.164,-183.34 -61.668,26.65 v -93.85 h -28.312 v 95.23 l -61.668,-22.52 z m 108.977,716.01 278.113,-278.12 H 563.508 Z" /><path
         id="path34"
         style="fill:#00adef;fill-opacity:1;fill-rule:nonzero;stroke:none"
         d="m 1716.01,3147 h -58.44 v 58.44 h 58.44 V 3147 h 58.44 v -58.44 h -58.44 z m 0,292.19 v -58.44 h -58.44 v 58.44 h 58.44 v 58.44 h 58.44 v -58.44 z m -292.19,0 h 58.43 v -58.44 h -58.43 v 58.44 h -58.44 v 58.44 h 58.44 z m 58.43,-233.75 V 3147 h -58.43 v -58.44 h -58.44 V 3147 h 58.44 v 58.44 z m -273.82,666.82 h 33.46 v 48.95 h 11.72 c 13.64,0.03 24.05,3.4 31.24,10.13 7.19,6.72 10.81,16.66 10.86,29.82 0.06,11.5 -2.93,20.91 -8.95,28.24 -6.02,7.33 -15.39,11.11 -28.11,11.35 h -50.22 z m 98.02,0 h 31.3 l 0.36,79.37 22.34,-79.37 h 36.7 v 128.49 h -31.29 l -0.37,-79.18 -21.61,79.18 h -37.43 z m 149.67,47.16 h 11.89 c -0.11,-10.98 -1.15,-18.3 -3.11,-21.96 -1.96,-3.66 -4.7,-5.35 -8.24,-5.07 -3.37,-0.09 -5.87,1.15 -7.51,3.72 -1.63,2.57 -2.69,7.08 -3.18,13.52 -0.49,6.43 -0.71,15.39 -0.66,26.87 -0.06,11.48 0.17,20.45 0.69,26.88 0.51,6.44 1.63,10.95 3.36,13.52 1.74,2.58 4.41,3.81 8.02,3.72 1.98,-0.01 3.61,-0.49 4.89,-1.44 1.28,-0.96 2.23,-2.34 2.86,-4.14 0.62,-1.72 1.08,-3.83 1.37,-6.33 0.29,-2.51 0.43,-5.38 0.43,-8.63 h 32.38 c -0.21,15.43 -4.02,26.52 -11.43,33.28 -7.4,6.76 -17.15,10.06 -29.24,9.91 -13.05,-0.02 -23.06,-2.61 -30.01,-7.74 -6.95,-5.14 -11.7,-12.67 -14.25,-22.59 -2.55,-9.92 -3.75,-22.07 -3.61,-36.44 -0.17,-14.2 0.51,-26.26 2.05,-36.19 1.54,-9.93 4.97,-17.5 10.29,-22.7 5.32,-5.22 13.56,-7.84 24.72,-7.87 5.84,-0.11 11.32,0.83 16.44,2.81 5.12,1.98 8.88,5.66 11.66,11.03 l 0.71,-11.32 h 22.67 v 69.81 h -43.19 z m 217.46,156.82 v -314.56 h 314.51 V 2924.51 H 1151.74 V 4076.24 Z M 1208.43,3604.98 V 2981.2 h 722.96 v 623.79 z m 33.46,371.68 h 6.31 c 4.25,0.01 7.47,-1.28 9.66,-3.86 2.2,-2.57 3.3,-6.51 3.32,-11.82 -0.02,-5.37 -1.12,-9.34 -3.32,-11.88 -2.19,-2.55 -5.41,-3.81 -9.66,-3.79 h -6.31 z m 298.81,-537.47 h -58.45 v -58.44 h 58.45 z m 58.43,-116.88 v 58.44 h -58.43 v -58.44 z m 58.44,-58.43 v 58.43 h -58.44 v -58.43 z m 0,116.87 v 58.44 h -58.44 v -58.44 z m 58.44,0 h -58.44 v -58.44 h 58.44 z m -292.19,-58.44 h 58.43 v 58.44 h -58.43 z m 58.43,-58.43 h 58.45 v 58.43 h -58.45 z m 233.76,-58.44 v 58.44 h -58.44 v -58.44 z m -175.31,0 h 58.43 v 58.44 h -58.43 z m -116.88,0 h 58.43 v 58.44 h -58.43 z M 1599.13,3147 h 58.44 v 58.44 h -58.44 z m -58.43,0 v -58.44 h -58.45 V 3147 h -58.43 v -58.44 h -58.44 V 3147 h 58.44 v 58.44 h -58.44 v 58.44 h 58.44 v 58.43 h -58.44 v 58.44 h 58.44 v 58.44 h -58.44 v 58.44 h 58.44 v -58.44 h 58.43 v 58.44 h 58.45 v -58.44 h 58.43 v 58.44 h 58.44 v -58.44 h 58.44 v 58.44 h 58.44 v -58.44 h -58.44 v -58.44 h 58.44 v -58.44 h -58.44 v -58.43 h 58.44 v -58.44 h -58.44 V 3147 h 58.44 v -58.44 h -58.44 V 3147 h -58.44 v -58.44 h -58.44 V 3147 Z m -58.45,0 h 58.45 v 58.44 h -58.45 z m 227.72,929.24 278.12,-278.11 h -278.12 z" /><path
         id="path36"
         style="fill:#4fbe37;fill-opacity:1;fill-rule:nonzero;stroke:none"
         d="m 92.3828,3937.41 -30.414,-65.15 h 37.4296 l 13.1406,38.69 12.777,-38.69 h 37.43 l -30.055,65.15 27.895,63.34 h -37.43 l -10.98,-37.25 -10.617,37.25 H 64.1289 Z m 76.0042,-65.15 h 74.676 v 27.33 h -41.219 v 101.16 h -33.457 z m 164.574,91.43 c 0.09,13.7 -3.191,23.74 -9.852,30.12 -6.656,6.38 -17.226,9.53 -31.718,9.46 -14.118,-0.05 -24.668,-3.5 -31.649,-10.34 -6.984,-6.84 -10.469,-16.77 -10.461,-29.78 0.274,-11.13 3.012,-19.39 8.215,-24.76 5.203,-5.37 11.223,-9.36 18.067,-11.97 6.843,-2.61 12.867,-5.33 18.07,-8.19 5.199,-2.84 7.937,-7.32 8.211,-13.41 -0.024,-3.59 -0.969,-6.54 -2.84,-8.85 -1.867,-2.31 -4.527,-3.5 -7.973,-3.58 -3.293,-0.06 -5.937,1.06 -7.926,3.36 -1.988,2.3 -3.011,6.16 -3.062,11.59 v 3.06 h -32.379 v -4.5 c 0.066,-13.16 3.801,-22.52 11.199,-28.07 7.399,-5.55 18.063,-8.25 31.989,-8.09 14.812,-0.06 26.089,3.12 33.836,9.53 7.742,6.42 11.64,16.43 11.691,30.05 -0.281,11.49 -3.133,20.04 -8.547,25.62 -5.418,5.59 -11.687,9.74 -18.812,12.46 -7.125,2.72 -13.395,5.52 -18.809,8.4 -5.414,2.89 -8.266,7.38 -8.551,13.47 -0.015,3 0.828,5.61 2.524,7.84 1.699,2.23 4.339,3.39 7.929,3.51 3.235,-0.11 5.641,-1.48 7.207,-4.1 1.571,-2.63 2.352,-5.88 2.344,-9.77 v -3.06 z m 194.156,112.55 V 3761.68 H 841.621 V 2924.51 H 5.27734 V 4076.24 Z M 61.9688,3604.98 V 2981.2 H 784.926 v 623.79 z M 630.738,3477.35 v -368.5 h -71.625 v 368.5 z m -114.316,-79.5 v -289.01 h -71.629 v 289.01 z m -114.317,-54.97 v -234.04 h -71.628 v 234.04 z m -114.32,-68.35 v -165.69 h -71.629 v 165.69 z m 275.723,801.71 278.113,-278.11 H 563.508 Z" /><path
         id="path38"
         style="fill:#fbbf16;fill-opacity:1;fill-rule:nonzero;stroke:none"
         d="m 3544.2,3911.85 -10.44,88.9 h -32.39 l 21.95,-128.49 h 36.72 l 11.51,86.38 11.16,-86.38 h 36.72 l 21.95,128.49 h -32.39 l -9.36,-88.9 -13.14,88.9 h -30.24 z m 90.91,-39.59 h 35.62 l 3.43,22.5 h 26.63 l 3.42,-22.5 h 35.63 l -31.31,128.49 h -42.11 z m 122.09,0 h 43.19 l 27.72,128.49 h -35.64 l -13.86,-96.84 -13.49,96.84 h -35.64 z m 209.31,203.98 v -314.56 h 314.51 V 2924.51 H 3444.67 V 4076.24 Z M 3501.37,3604.98 V 2981.2 h 722.95 v 623.79 z m 195.46,314.95 h -18.72 l 9.54,54.57 z M 3593.19,3277 h 106 c 3.25,0 9.37,-4.17 10.56,-7.19 l 37.94,-96.15 21.29,344.72 c 0.97,15.59 20.86,16.1 22.63,0.58 l 29.3,-258.03 14.8,82.44 c 2.67,14.87 19.7,14.86 22.36,-0.01 l 22.62,-126.94 h 42.78 l 19.8,188.65 c 1.61,15.34 20.19,15.79 22.53,0.54 l 37.66,-245.73 9.95,101.45 c 1.4,14.26 15.73,16.63 21.65,3.58 l 34.78,-76.84 h 62.66 c 15.14,0 15.14,-22.71 0,-22.71 h -69.98 c -14.87,0 -27.79,45.18 -30.65,51.5 l -14.63,-149.21 c -1.51,-15.38 -20.19,-15.88 -22.53,-0.61 l -38.03,248.14 -11.69,-111.31 c -0.54,-5.17 -6.1,-10.17 -11.29,-10.17 h -62.52 c -20.77,0 -22.34,71.98 -24.33,83.15 l -17.28,-96.3 c -2.71,-15.09 -20.74,-14.51 -22.47,0.72 l -23.44,206.36 -16.45,-266.36 c -0.91,-14.73 -16.49,-17.2 -21.91,-3.47 l -53.84,136.48 h -98.27 c -15.14,0 -15.14,22.72 0,22.72 z m 409.71,799.24 278.12,-278.11 H 4002.9 Z" /><path
         id="path40"
         style="fill:#656263;fill-opacity:1;fill-rule:nonzero;stroke:none"
         d="m 2354.9,3872.26 h 31.3 l 0.36,95.76 17.82,-95.76 h 24.13 l 18.19,95.76 v -95.76 h 31.3 v 128.49 h -47.87 l -13.86,-76.11 -13.51,76.11 h -47.86 z m 133.96,64.24 c -0.23,-23.8 3.14,-40.94 10.12,-51.4 6.97,-10.47 18.9,-15.58 35.77,-15.36 16.87,-0.22 28.79,4.89 35.76,15.36 6.97,10.46 10.35,27.6 10.12,51.4 0.23,23.82 -3.15,40.95 -10.12,51.41 -6.97,10.47 -18.89,15.59 -35.76,15.36 -16.87,0.23 -28.8,-4.89 -35.77,-15.36 -6.98,-10.46 -10.35,-27.59 -10.12,-51.41 z m 121.19,-64.24 h 43.19 l 27.72,128.49 h -35.64 l -13.86,-96.84 -13.49,96.84 h -35.63 z m 210,203.98 v -314.56 h 314.5 V 2924.51 H 2298.21 V 4076.24 Z M 2354.9,3604.98 V 2981.2 h 722.96 v 623.79 z m 168.49,331.52 c -0.05,11.49 0.18,20.45 0.66,26.88 0.5,6.44 1.56,10.95 3.19,13.52 1.63,2.58 4.13,3.81 7.51,3.72 3.37,0.09 5.87,-1.14 7.5,-3.72 1.64,-2.57 2.7,-7.08 3.18,-13.52 0.5,-6.43 0.72,-15.39 0.67,-26.88 0.05,-11.48 -0.17,-20.44 -0.67,-26.87 -0.48,-6.44 -1.54,-10.95 -3.18,-13.52 -1.63,-2.57 -4.13,-3.81 -7.5,-3.72 -3.38,-0.09 -5.88,1.15 -7.51,3.72 -1.63,2.57 -2.69,7.08 -3.19,13.52 -0.48,6.43 -0.71,15.39 -0.66,26.87 z m 272.98,-700.78 v 114.75 h -159.98 v -114.75 z m 0,149.1 v 114.75 h -159.98 v -114.75 z m 0,-298.2 v 114.75 h -159.98 v -114.75 z m -177.87,129.03 v 31.13 h -32.27 v -31.13 z m 0,63.19 v 31.13 h -32.27 v -31.13 z m 0,65.83 v 31.13 h -32.27 v -31.13 z m 0,63.21 V 3439 h -32.27 v -31.12 z m 0,60.56 v 31.13 h -32.27 v -31.13 z m 0,-381.82 v 31.12 h -32.27 v -31.12 z m 0,63.19 v 31.14 h -32.27 v -31.14 z m 228.03,65.84 v 31.13 h -32.27 v -31.13 z m 0,63.19 v 31.13 h -32.27 v -31.13 z m 0,65.83 v 31.13 h -32.27 v -31.13 z m 0,63.21 V 3439 h -32.27 v -31.12 z m 0,60.56 v 31.13 h -32.27 v -31.13 z m 0,-381.82 v 31.12 h -32.27 v -31.12 z m 0,63.19 v 31.14 h -32.27 v -31.14 z m -277.02,382.67 h 293.74 V 3053.7 h -293.74 z m 286.93,543.76 278.11,-278.11 h -278.11 z" /><path
         id="path42"
         style="fill:#2d7bc8;fill-opacity:1;fill-rule:nonzero;stroke:none"
         d="m 4647.83,3872.26 h 48.59 c 12.69,0.17 21.93,3.22 27.74,9.17 5.81,5.95 9.47,13.77 10.98,23.45 1.51,9.69 2.16,20.23 1.95,31.62 0.21,11.4 -0.44,21.94 -1.95,31.63 -1.51,9.69 -5.17,17.5 -10.98,23.45 -5.81,5.94 -15.05,9.01 -27.74,9.17 h -48.59 z m 99.74,64.24 c -0.23,-23.8 3.14,-40.94 10.12,-51.4 6.97,-10.47 18.89,-15.58 35.77,-15.36 16.87,-0.22 28.79,4.89 35.76,15.36 6.98,10.46 10.35,27.6 10.13,51.4 0.22,23.82 -3.15,40.95 -10.13,51.41 -6.97,10.47 -18.89,15.59 -35.76,15.36 -16.88,0.23 -28.8,-4.89 -35.77,-15.36 -6.98,-10.46 -10.35,-27.59 -10.12,-51.41 z m 155.22,18.01 h 32.38 v 8.1 c 0.15,12.56 -3,22.44 -9.45,29.65 -6.45,7.2 -17.16,10.87 -32.12,11.01 -17.11,0.29 -29.1,-4.69 -35.97,-14.95 -6.88,-10.26 -10.18,-27.53 -9.92,-51.82 -0.13,-15.89 1.05,-28.76 3.54,-38.59 2.48,-9.83 7.06,-17 13.73,-21.5 6.67,-4.51 16.21,-6.74 28.62,-6.67 7.27,-0.12 14.11,1.07 20.53,3.57 6.42,2.49 11.65,6.99 15.69,13.49 4.04,6.49 6.12,15.68 6.25,27.56 v 9.54 h -32.38 c 0.1,-11.94 -0.55,-20.24 -1.94,-24.86 -1.39,-4.64 -4.11,-6.85 -8.15,-6.65 -3.37,-0.09 -5.88,1.15 -7.51,3.72 -1.63,2.57 -2.69,7.08 -3.18,13.52 -0.5,6.43 -0.71,15.39 -0.66,26.87 -0.05,11.49 0.16,20.45 0.66,26.88 0.49,6.44 1.55,10.95 3.18,13.52 1.63,2.58 4.14,3.81 7.51,3.72 3.22,0.12 5.56,-1.21 7.03,-3.99 1.46,-2.78 2.18,-7.75 2.16,-14.92 z m 210.19,121.73 v -314.56 h 314.5 V 2924.51 H 4591.14 V 4076.24 Z M 4647.83,3604.98 V 2981.2 h 722.96 v 623.79 z m 33.46,371.68 h 6.66 c 4.27,0.14 7.45,-0.75 9.55,-2.69 2.11,-1.94 3.49,-5.81 4.15,-11.61 0.66,-5.8 0.96,-14.42 0.9,-25.86 0.06,-11.43 -0.24,-20.05 -0.9,-25.85 -0.66,-5.8 -2.04,-9.67 -4.15,-11.61 -2.1,-1.94 -5.28,-2.83 -9.55,-2.69 h -6.66 z m 100.82,-40.16 c -0.06,11.49 0.17,20.45 0.66,26.88 0.49,6.44 1.55,10.95 3.18,13.52 1.63,2.58 4.13,3.81 7.51,3.72 3.37,0.09 5.87,-1.14 7.5,-3.72 1.64,-2.57 2.7,-7.08 3.19,-13.52 0.49,-6.43 0.71,-15.39 0.66,-26.88 0.05,-11.48 -0.17,-20.44 -0.66,-26.87 -0.49,-6.44 -1.55,-10.95 -3.19,-13.52 -1.63,-2.57 -4.13,-3.81 -7.5,-3.72 -3.38,-0.09 -5.88,1.15 -7.51,3.72 -1.63,2.57 -2.69,7.08 -3.18,13.52 -0.49,6.43 -0.72,15.39 -0.66,26.87 z m 518.32,-671 -47.27,-190.16 h -61.27 l -21.93,110.4 -22.18,-110.4 h -61.27 l -47.28,190.16 h 60.22 l 21.39,-117.53 23.24,117.53 h 51.5 l 22.72,-117.53 21.92,117.53 z m -582.25,0.01 278.64,-0.01 v -26.59 h -278.64 z m 0,81.78 h 582.25 v -26.61 h -582.25 z m 0,81.78 h 582.25 v -26.61 h -582.25 z m 0,81.77 h 582.25 v -26.6 h -582.25 z m 0,-327.11 h 278.64 v -26.6 h -278.64 z m 0,-81.78 h 278.64 v -26.61 h -278.64 z m 431.19,974.29 278.11,-278.11 h -278.11 z" /><path
         id="path44"
         style="fill:#96d550;fill-opacity:1;fill-rule:nonzero;stroke:none"
         d="m 1255.96,5462.61 v -93.06 c -0.05,-6 -0.86,-10.07 -2.44,-12.24 -1.57,-2.17 -3.64,-3.19 -6.21,-3.06 -2.57,-0.13 -4.65,0.89 -6.22,3.06 -1.58,2.17 -2.39,6.24 -2.43,12.24 v 6.3 h -30.22 v -2.7 c -0.13,-13.46 2.87,-23.74 8.99,-30.83 6.13,-7.1 16.15,-10.68 30.06,-10.73 13.79,-0.16 24.22,3.08 31.29,9.71 7.06,6.64 10.61,17.61 10.64,32.93 v 88.38 z m 45.58,-128.5 H 1335 v 48.96 h 11.71 c 13.64,0.02 24.06,3.39 31.24,10.12 7.19,6.72 10.81,16.67 10.86,29.83 0.06,11.5 -2.93,20.91 -8.94,28.23 -6.02,7.33 -15.39,11.11 -28.12,11.36 h -50.21 z m 141.21,47.16 h 11.89 c -0.12,-10.98 -1.15,-18.3 -3.11,-21.95 -1.96,-3.66 -4.71,-5.36 -8.24,-5.07 -3.38,-0.1 -5.88,1.14 -7.51,3.71 -1.64,2.58 -2.69,7.08 -3.19,13.52 -0.48,6.43 -0.71,15.4 -0.66,26.87 -0.05,11.49 0.18,20.45 0.69,26.89 0.51,6.43 1.64,10.94 3.37,13.51 1.74,2.58 4.4,3.82 8.02,3.72 1.97,-0.01 3.6,-0.49 4.88,-1.44 1.28,-0.95 2.24,-2.33 2.86,-4.14 0.63,-1.72 1.09,-3.82 1.38,-6.33 0.29,-2.5 0.43,-5.38 0.42,-8.62 h 32.38 c -0.21,15.42 -4.01,26.51 -11.42,33.27 -7.4,6.76 -17.15,10.06 -29.24,9.92 -13.06,-0.03 -23.06,-2.61 -30.01,-7.75 -6.95,-5.14 -11.7,-12.67 -14.25,-22.59 -2.55,-9.91 -3.76,-22.06 -3.62,-36.44 -0.17,-14.2 0.52,-26.26 2.06,-36.19 1.54,-9.93 4.97,-17.49 10.28,-22.7 5.32,-5.21 13.56,-7.83 24.73,-7.87 5.84,-0.11 11.32,0.83 16.43,2.81 5.12,1.98 8.89,5.66 11.3,11.04 l 1.08,-11.33 h 22.66 v 69.82 h -43.18 z m 230.83,156.83 v -314.56 h 314.51 V 4386.36 H 1151.74 V 5538.1 Z m -465.15,-471.26 v -623.79 h 722.96 v 623.79 z M 1335,5438.51 h 6.3 c 4.25,0.01 7.47,-1.27 9.66,-3.85 2.2,-2.58 3.31,-6.52 3.32,-11.82 -0.01,-5.38 -1.12,-9.34 -3.32,-11.89 -2.19,-2.54 -5.41,-3.8 -9.66,-3.78 h -6.3 z m 516.81,-487.22 v -392.68 h -563.79 v 392.68 z m -21.74,-21.74 h -520.32 v -349.2 h 520.32 z m -489.25,-90.35 c 0,22.2 18,40.2 40.2,40.2 22.2,0 40.2,-18 40.2,-40.2 0,-22.2 -18,-40.2 -40.2,-40.2 -22.2,0 -40.2,18 -40.2,40.2 z m 291.29,-72.17 39.07,70.58 L 1799,4606.7 h -458.18 l 127.82,230.91 39.07,-70.58 62.2,112.37 z m 77.86,771.07 278.12,-278.12 h -278.12 z" /><path
         id="path46"
         style="fill:#f68313;fill-opacity:1;fill-rule:nonzero;stroke:none"
         d="m 61.9688,5334.11 h 35.6328 l 3.4184,22.5 h 26.636 l 3.418,-22.5 h 35.633 l -31.312,128.5 H 93.2813 Z m 122.0972,0 h 43.188 l 27.715,128.5 h -35.633 l -13.856,-96.84 -13.496,96.84 h -35.632 z m 75.266,0 h 33.457 v 128.5 H 259.332 Z M 527.117,5538.1 V 5223.54 H 841.621 V 4386.36 H 5.27734 V 5538.1 Z M 61.9688,5066.84 V 4443.05 H 784.926 v 623.79 z m 61.7262,314.95 H 104.98 l 9.536,54.56 z m 421.891,-626.84 -184.277,106.4 v -212.79 z m -314.273,0 c 0,106.12 86.019,192.14 192.136,192.14 106.117,0 192.137,-86.02 192.137,-192.14 0,-106.12 -86.02,-192.14 -192.137,-192.14 -106.117,0 -192.136,86.02 -192.136,192.14 z M 563.508,5538.1 841.621,5259.98 H 563.508 Z" /><path
         id="path48"
         style="fill:#1c4f9c;fill-opacity:1;fill-rule:nonzero;stroke:none"
         d="m 3501.37,5334.11 h 31.29 l 0.36,95.76 17.83,-95.76 h 24.13 l 18.18,95.76 v -95.76 h 31.3 v 128.5 h -47.86 l -13.87,-76.12 -13.5,76.12 h -47.86 z m 136.47,0 h 33.46 v 48.96 h 11.71 c 13.65,0.02 24.06,3.39 31.25,10.12 7.19,6.72 10.8,16.67 10.86,29.83 0.05,11.5 -2.93,20.91 -8.95,28.23 -6.02,7.33 -15.39,11.11 -28.11,11.36 h -50.22 z m 125.18,88.91 c -0.03,6.64 0.66,11.28 2.07,13.89 1.41,2.61 3.73,3.87 6.94,3.76 2.88,0.08 5.01,-0.89 6.4,-2.92 1.39,-2.04 2.08,-5.63 2.07,-10.77 0.01,-7.21 -1.18,-12.06 -3.58,-14.55 -2.4,-2.48 -6.07,-3.64 -11.02,-3.46 h -4.86 v -20.86 h 8.47 c 4.21,0.13 7.31,-0.94 9.3,-3.2 1.99,-2.25 2.97,-6.47 2.95,-12.65 0.1,-7.84 -0.46,-13.14 -1.69,-15.92 -1.22,-2.77 -3.72,-4.07 -7.5,-3.89 -1.8,-0.01 -3.33,0.37 -4.59,1.12 -1.27,0.76 -2.26,1.95 -2.98,3.56 -0.73,1.6 -1.3,3.62 -1.71,6.08 -0.41,2.45 -0.62,5.47 -0.63,9.05 h -31.3 c -0.05,-15.16 3.38,-25.79 10.28,-31.88 6.9,-6.09 17.57,-9.02 32.01,-8.79 13.78,-0.08 24.15,3.18 31.11,9.78 6.96,6.6 10.45,17.02 10.46,31.25 0.1,6.98 -1.36,13.01 -4.41,18.08 -3.04,5.06 -8.29,8.34 -15.74,9.83 6.57,2.11 11.2,5.41 13.9,10.28 2.69,4.87 4,10.03 3.91,15.46 0.28,11.31 -2.49,20 -8.32,26.07 -5.83,6.06 -16.43,9.12 -31.81,9.19 -13,0.03 -22.84,-3.09 -29.52,-9.35 -6.62,-6.11 -10.1,-15.83 -10.43,-29.15 z m 203.49,115.08 v -314.56 h 314.51 V 4386.36 H 3444.67 V 5538.1 Z m -465.14,-471.26 v -623.79 h 722.95 v 623.79 z m 169.93,371.67 h 6.31 c 4.25,0.01 7.46,-1.27 9.66,-3.85 2.2,-2.58 3.3,-6.52 3.31,-11.82 -0.01,-5.38 -1.11,-9.34 -3.31,-11.89 -2.2,-2.54 -5.41,-3.8 -9.66,-3.78 h -6.31 z m 369.52,-785.13 c 0,-39.02 -30.99,-70.57 -70.58,-70.57 -37.87,0 -70.01,31.55 -70.01,70.57 0,39.02 32.14,70.58 70.01,70.58 18.94,0 28.69,-5.74 37.88,-13.2 v 153.2 h -222.65 v -243.28 c 0,-39.03 -31.56,-70.58 -70.58,-70.58 -38.45,0 -70.01,31.55 -70.01,70.58 0,39.01 31.56,70.57 70.01,70.57 18.94,0 28.11,-5.74 37.3,-13.19 v 281.73 h 288.63 z m -37.92,884.72 278.12,-278.12 H 4002.9 Z" /><path
         id="path50"
         style="fill:#ee293d;fill-opacity:1;fill-rule:nonzero;stroke:none"
         d="m 4647.83,5334.11 h 33.46 v 48.96 H 4693 c 13.64,0.02 24.06,3.39 31.24,10.12 7.19,6.72 10.81,16.67 10.87,29.83 0.05,11.5 -2.93,20.91 -8.95,28.23 -6.02,7.33 -15.39,11.11 -28.11,11.36 h -50.22 z m 98.02,0 h 48.59 c 12.68,0.17 21.93,3.23 27.74,9.18 5.81,5.94 9.47,13.76 10.98,23.45 1.51,9.69 2.16,20.22 1.95,31.62 0.21,11.39 -0.44,21.93 -1.95,31.62 -1.51,9.69 -5.17,17.5 -10.98,23.45 -5.81,5.95 -15.06,9.01 -27.74,9.18 h -48.59 z m 103.52,0 h 33.45 v 52.92 h 39.97 v 26.26 h -39.97 v 21.98 h 42.66 v 27.34 h -76.11 z m -201.54,-267.27 v -623.79 h 722.96 v 623.79 z m 465.15,471.26 v -314.56 h 314.5 V 4386.36 H 4591.14 V 5538.1 Z m -431.69,-99.59 h 6.31 c 4.24,0.01 7.46,-1.27 9.66,-3.85 2.19,-2.58 3.3,-6.52 3.31,-11.82 -0.01,-5.38 -1.12,-9.34 -3.31,-11.89 -2.2,-2.54 -5.42,-3.8 -9.66,-3.78 h -6.31 z m 98.02,0 h 6.67 c 4.26,0.15 7.44,-0.75 9.54,-2.69 2.11,-1.94 3.49,-5.81 4.15,-11.61 0.66,-5.8 0.96,-14.41 0.9,-25.85 0.06,-11.43 -0.24,-20.06 -0.9,-25.86 -0.66,-5.8 -2.04,-9.66 -4.15,-11.6 -2.1,-1.94 -5.28,-2.84 -9.54,-2.69 h -6.67 z m 264.04,-465.8 h 257.08 v -26.6 h -257.08 z m -325.17,-245.34 h 257.09 v -26.6 h -257.09 z m 0,81.78 h 257.09 v -26.6 h -257.09 z m 0,-163.56 h 257.09 v -26.6 h -257.09 z m 0,-81.78 h 257.09 v -26.6 h -257.09 z m 582.25,163.56 v -190.18 h -257.08 v 190.18 z m -582.25,163.56 h 257.09 v -26.6 h -257.09 z m 0,81.78 h 257.09 v -26.6 h -257.09 z m 325.17,-163.56 h 257.08 v -26.6 h -257.08 z m 0,81.78 h 257.08 v -26.6 h -257.08 z m 106.02,647.17 278.11,-278.12 h -278.11 z" /><path
         id="path52"
         style="fill:#00adef;fill-opacity:1;fill-rule:nonzero;stroke:none"
         d="m 2354.75,5462.61 v -28.42 h 25.2 v -100.08 h 33.46 v 100.08 h 25.2 l -0.26,28.42 z m 152.16,-63.35 27.41,62.26 v -27.33 h 25.2 v -100.08 h 33.46 v 100.08 h 25.2 v 28.42 h -83.38 -37.42 l -10.98,-37.25 -10.62,37.25 h -37.17 l 27.99,-63.35 -30.41,-65.15 h 37.43 l 13.14,38.69 12.78,-38.69 h 37.42 z m 313.14,138.84 v -314.56 h 314.5 V 4386.36 H 2298.21 V 5538.1 Z M 2354.9,5066.84 v -623.79 h 722.96 v 623.79 z m 70.35,-339.48 h 582.25 v -26.6 h -582.25 z m 0,81.78 h 582.25 v -26.6 h -582.25 z m 0,81.78 h 582.25 v -26.6 h -582.25 z m 0,81.78 h 582.25 v -26.6 h -582.25 z m 0,-327.12 h 582.25 v -26.6 h -582.25 z m 0,-81.78 h 582.25 v -26.6 h -582.25 z m 431.19,974.3 278.11,-278.12 h -278.11 z" /></g></g></svg>